Coordinates
version=1
nRows=29
nColumns=24
inDegrees=yes

Units are S.I. units (second, meters, Newtons, ...)
Angles are in degrees.

endheader
time	pelvis_tilt	pelvis_list	pelvis_rotation	pelvis_tx	pelvis_ty	pelvis_tz	hip_flexion_r	hip_adduction_r	hip_rotation_r	knee_angle_r	ankle_angle_r	subtalar_angle_r	mtp_angle_r	hip_flexion_l	hip_adduction_l	hip_rotation_l	knee_angle_l	ankle_angle_l	subtalar_angle_l	mtp_angle_l	lumbar_extension	lumbar_bending	lumbar_rotation
      0.81683333	      0.63999451	      3.38022637	     -0.71723329	     -0.38787742	      1.01971139	      0.30539152	     10.50173161	     -0.26748157	     -1.45254231	    -18.85533013	      6.76531968	     -6.98121702	      9.40603896	     12.70192309	      2.21140745	     -7.32487922	    -65.75695760	      1.27871659	    -17.10055743	      1.92724592	     -4.22172617	     -3.62932347	      3.28661061
      0.82100000	      0.65691420	      3.47332893	     -0.94708125	     -0.38263941	      1.02048368	      0.30574863	     10.02795132	     -0.36792984	     -1.42409095	    -18.54938495	      6.91356865	     -6.68982846	      9.47222717	     13.22249956	      2.27518987	     -7.53833215	    -65.46699175	      1.58328851	    -16.56952593	      1.93814524	     -4.24800574	     -3.71841399	      3.68865560
      0.82516667	      0.68386006	      3.56615697	     -1.17962221	     -0.37740970	      1.02124081	      0.30611763	      9.54255717	     -0.46916650	     -1.38865422	    -18.23704145	      7.03579044	     -6.40099739	      9.53997411	     13.71858110	      2.32963530	     -7.75940048	    -65.12106337	      1.86255187	    -16.00694100	      1.96408534	     -4.29365646	     -3.82180550	      4.04662633
      0.82933333	      0.70236745	      3.65459932	     -1.41311217	     -0.37219742	      1.02192636	      0.30647053	      9.07077162	     -0.56911741	     -1.35587630	    -17.92945190	      7.16441662	     -6.12159692	      9.60718480	     14.21724368	      2.37608091	     -7.97832681	    -64.73764794	      2.13590003	    -15.42130020	      2.00354428	     -4.32602873	     -3.91732602	      4.39204192
      0.83350000	      0.71354574	      3.73124844	     -1.64249816	     -0.36698230	      1.02256131	      0.30682237	      8.60629530	     -0.65776252	     -1.32335009	    -17.62094527	      7.28501368	     -5.84365014	      9.67594248	     14.71240130	      2.40416513	     -8.19253963	    -64.31080713	      2.40298471	    -14.80493219	      2.05570194	     -4.35064363	     -3.99686752	      4.73954025
      0.83766667	      0.73777314	      3.81627006	     -1.87474639	     -0.36179186	      1.02317772	      0.30717133	      8.13039910	     -0.75889643	     -1.28953660	    -17.31242858	      7.41239845	     -5.55540369	      9.75273964	     15.18180830	      2.43790389	     -8.40950401	    -63.83331129	      2.64415646	    -14.19782483	      2.12438346	     -4.39990123	     -4.10007635	      5.10172484
      0.84183333	      0.75389293	      3.88728712	     -2.10379343	     -0.35659500	      1.02373003	      0.30749269	      7.66495153	     -0.84953821	     -1.26552710	    -17.00717002	      7.51738066	     -5.28904870	      9.81855844	     15.64718613	      2.45339245	     -8.62368645	    -63.31306806	      2.87189387	    -13.57519640	      2.19377577	     -4.42198255	     -4.16167640	      5.40688480
      0.84600000	      0.76286591	      3.94694658	     -2.32417010	     -0.35142438	      1.02421746	      0.30781325	      7.20684833	     -0.92793370	     -1.23898939	    -16.70071401	      7.65655187	     -5.01544322	      9.89530063	     16.11463014	      2.45439107	     -8.82367211	    -62.76426392	      3.11203163	    -12.95550579	      2.28245354	     -4.45212656	     -4.23418175	      5.76305944
      0.85016667	      0.77433090	      3.99828958	     -2.53631325	     -0.34626283	      1.02465677	      0.30812977	      6.74225522	     -0.99882335	     -1.21347801	    -16.38679354	      7.78825302	     -4.75173233	      9.97760498	     16.56968069	      2.44185102	     -9.01939246	    -62.17890998	      3.32584835	    -12.36463922	      2.38544219	     -4.49126706	     -4.30146227	      6.10016416
      0.85433333	      0.77975487	      4.05618013	     -2.75568279	     -0.34109580	      1.02505767	      0.30842374	      6.29431229	     -1.08191587	     -1.19469797	    -16.09024037	      7.90721276	     -4.49705920	     10.05227826	     17.01041519	      2.43685226	     -9.21970585	    -61.53464059	      3.51436982	    -11.78590423	      2.48692655	     -4.50713555	     -4.35336661	      6.40203801
      0.85850000	      0.79971749	      4.08851240	     -2.96119089	     -0.33595268	      1.02541897	      0.30870387	      5.81896789	     -1.13921373	     -1.17647818	    -15.77035459	      8.02181823	     -4.22355018	     10.23061461	     17.42968594	      2.40224895	     -9.40686824	    -60.86509783	      3.66081656	    -11.27651338	      2.74123840	     -4.55514769	     -4.39448403	      6.84731501
      0.86266667	      0.80541597	      4.13928311	     -3.16479948	     -0.33081022	      1.02573753	      0.30897760	      5.37136253	     -1.21672873	     -1.15034408	    -15.47579969	      8.13498746	     -4.00947114	     10.28450786	     17.84486304	      2.38913234	     -9.59083221	    -60.13891162	      3.82745580	    -10.73355002	      2.82541841	     -4.57957559	     -4.45019667	      6.99472509
      0.86683333	      0.80123110	      4.16944183	     -3.35523853	     -0.32567581	      1.02596323	      0.30922971	      4.93126796	     -1.27500602	     -1.14240225	    -15.17838148	      8.26779574	     -3.76154775	     10.34357732	     18.26444591	      2.34967368	     -9.76658421	    -59.39501598	      3.98838361	    -10.22267366	      2.92004547	     -4.59870319	     -4.48456431	      7.25786756
      0.87100000	      0.82924772	      4.18075936	     -3.53146001	     -0.32054618	      1.02620114	      0.30945691	      4.44474285	     -1.31646502	     -1.14103126	    -14.86319276	      8.43309560	     -3.51614268	     10.42763070	     18.63540780	      2.29743137	     -9.91978555	    -58.61769840	      4.15182692	     -9.77991635	      3.05860372	     -4.66322740	     -4.50501192	      7.59947995
      0.87516667	      0.83049334	      4.19761401	     -3.70938319	     -0.31542443	      1.02635541	      0.30967721	      3.99694685	     -1.36456494	     -1.13696888	    -14.56336585	      8.56320631	     -3.28564010	     10.50887492	     19.01977219	      2.24759991	    -10.07976260	    -57.79374953	      4.26578580	     -9.36897751	      3.19846506	     -4.69261876	     -4.52507707	      7.87030411
      0.87933333	      0.81514209	      4.20637163	     -3.87576878	     -0.31030070	      1.02642991	      0.30987438	      3.56919807	     -1.40439392	     -1.13707551	    -14.27246211	      8.69944097	     -3.06094429	     10.59345007	     19.40872212	      2.19084545	    -10.22725307	    -56.93790798	      4.36344950	     -9.00611779	      3.34892583	     -4.70483688	     -4.53453024	      8.13598130
      0.88350000	      0.81408550	      4.21031124	     -4.03119104	     -0.30517908	      1.02649179	      0.31004562	      3.12200094	     -1.44244994	     -1.14528230	    -13.97627557	      8.83042729	     -2.84647045	     10.67291388	     19.76625451	      2.13385129	    -10.36398459	    -56.04079256	      4.43674577	     -8.68762237	      3.49511180	     -4.73404590	     -4.53888510	      8.37313665
      0.88766667	      0.78722902	      4.20716340	     -4.17712949	     -0.30005876	      1.02648095	      0.31020389	      2.70204499	     -1.47068696	     -1.14728220	    -13.67853529	      8.91260798	     -2.66532213	     10.71513406	     20.13613464	      2.07086896	    -10.48761148	    -55.10335979	      4.45371839	     -8.41954800	      3.57338544	     -4.73339968	     -4.53046683	      8.52111487
      0.89183333	      0.79978934	      4.19229644	     -4.31256824	     -0.29494055	      1.02646102	      0.31033726	      2.23838158	     -1.49276379	     -1.17338702	    -13.38766862	      9.09094235	     -2.44227846	     10.78734034	     20.44983533	      1.99934351	    -10.60625215	    -54.14269585	      4.53078524	     -8.17351954	      3.71228871	     -4.78744847	     -4.51939215	      8.80651393
      0.89600000	      0.77064256	      4.18016024	     -4.43962143	     -0.28982257	      1.02635886	      0.31044970	      1.82267158	     -1.51384512	     -1.18168944	    -13.10021062	      9.18349673	     -2.26915590	     10.83144258	     20.79023797	      1.93448982	    -10.70972996	    -53.13042004	      4.51547762	     -7.97227256	      3.79887884	     -4.78914766	     -4.49907978	      8.95674175
      0.90016667	      0.74976226	      4.16396137	     -4.55599366	     -0.28469596	      1.02621967	      0.31055134	      1.39630729	     -1.53222685	     -1.20304995	    -12.81541804	      9.31821938	     -2.08414663	     10.87629927	     21.10549967	      1.86891643	    -10.80374256	    -52.08567134	      4.50905658	     -7.80716227	      3.88835365	     -4.80449253	     -4.48284038	      9.14580772
      0.90433333	      0.74770130	      4.12546990	     -4.65731478	     -0.27957721	      1.02606351	      0.31061482	      0.94326325	     -1.52935736	     -1.23139078	    -12.52296787	      9.45040581	     -1.90938736	     10.92146707	     21.38526524	      1.78811302	    -10.87579213	    -51.01066937	      4.49130806	     -7.67614475	      3.98163907	     -4.84484609	     -4.43857133	      9.33086449
      0.90850000	      0.70509177	      4.10234885	     -4.75162396	     -0.27443881	      1.02581349	      0.31067241	      0.54231740	     -1.53914682	     -1.25634897	    -12.25120554	      9.58812088	     -1.75071175	     10.96180875	     21.68942494	      1.72557771	    -10.94226424	    -49.88916355	      4.44090795	     -7.58617788	      4.06646497	     -4.83586227	     -4.41590754	      9.48939173
      0.91266667	      0.69408488	      4.05869472	     -4.83062271	     -0.26931354	      1.02555934	      0.31070359	      0.10055774	     -1.52965397	     -1.29395602	    -11.96995936	      9.72235422	     -1.59249217	     11.00033997	     21.94465619	      1.64820315	    -10.99265443	    -48.73850365	      4.38102821	     -7.51005120	      4.15221309	     -4.87067858	     -4.36387258	      9.64452969
      0.91683333	      0.64009350	      4.00541031	     -4.89459455	     -0.26418147	      1.02518607	      0.31068272	     -0.28135827	     -1.51144216	     -1.37129940	    -11.72504891	      9.90710658	     -1.36035647	     11.15577266	     22.23487452	      1.56806757	    -11.01702818	    -47.56265076	      4.29195091	     -7.48112327	      4.54775485	     -4.86199947	     -4.29055223	      9.89594852
      0.92100000	      0.59885165	      3.98063308	     -4.96818029	     -0.25903423	      1.02483513	      0.31070975	     -0.68407786	     -1.51626892	     -1.36920760	    -11.45855758	     10.01665282	     -1.29169721	     11.17888874	     22.47655170	      1.51438769	    -11.06391855	    -46.31032247	      4.19748582	     -7.43177013	      4.60542719	     -4.85062785	     -4.27260968	      9.93041787
      0.92516667	      0.55445488	      3.93003049	     -5.01596517	     -0.25388162	      1.02441551	      0.31068814	     -1.08816175	     -1.49437291	     -1.40446522	    -11.19466495	     10.14540174	     -1.18492341	     11.20292575	     22.71184529	      1.44431097	    -11.07776370	    -45.04058349	      4.07243650	     -7.41189111	      4.66880514	     -4.85315381	     -4.21652498	     10.03023093
      0.92933333	      0.52887609	      3.87721846	     -5.05814138	     -0.24874274	      1.02398399	      0.31064174	     -1.50762489	     -1.47333916	     -1.44697002	    -10.94305270	     10.31864547	     -1.04479684	     11.23900082	     22.90655014	      1.38450842	    -11.07270524	    -43.72701869	      3.95149339	     -7.44700157	      4.77966318	     -4.88167138	     -4.15779052	     10.16639192
      0.93350000	      0.45954460	      3.83078471	     -5.09230747	     -0.24357246	      1.02346639	      0.31060858	     -1.87527715	     -1.45215254	     -1.48857045	    -10.70274926	     10.43637373	     -0.96356649	     11.25639272	     23.12580879	      1.32035911	    -11.08426653	    -42.36806729	      3.78964115	     -7.39474515	      4.83686437	     -4.84842410	     -4.10619668	     10.23306336
